<svg width="64" height="29" viewBox="0 0 64 29" fill="none" xmlns="http://www.w3.org/2000/svg">
<path d="M11.1378 0.00598145C10.9537 0.00598145 10.7846 0.107079 10.6974 0.269162L0.396253 19.4239C0.217112 19.757 0.45839 20.1607 0.836612 20.1607H3.97327C4.157 20.1607 4.32592 20.0599 4.41322 19.8983L12.2173 5.4462C12.4057 5.0974 12.9056 5.09602 13.0959 5.44377L17.749 13.9479C17.9313 14.2811 17.6902 14.6879 17.3104 14.6879H10.437C10.2565 14.6879 10.09 14.7851 10.0014 14.9423L8.69629 17.2576C8.50841 17.5909 8.74925 18.0032 9.13186 18.0032H19.5718C19.7515 18.0032 19.9174 18.0996 20.0063 18.2558L20.9467 19.908C21.0356 20.0642 21.2015 20.1607 21.3813 20.1607H28.3861C28.6623 20.1607 28.8861 19.9368 28.8861 19.6607V15.2128C28.8861 15.079 28.9398 14.9507 29.0352 14.8567L35.012 8.96609C35.3306 8.65217 35.1083 8.10997 34.6611 8.10997H29.3861C29.11 8.10997 28.8861 7.88611 28.8861 7.60997V4.50535C28.8861 4.22921 29.11 4.00535 29.3861 4.00535H37.3223C40.4488 4.1286 41.9758 7.83868 39.8272 10.0911L39.4581 10.478L34.6382 15.3628C34.3264 15.6787 34.5502 16.214 34.9941 16.214H38.0764C38.2089 16.214 38.336 16.2666 38.4298 16.3602L42.0882 20.0144C42.1819 20.1081 42.309 20.1607 42.4415 20.1607H47.1536C47.3166 20.1607 47.4694 20.0812 47.563 19.9476L52.1624 13.3842C52.3521 13.1136 52.7474 13.098 52.9576 13.3529L58.423 19.9788C58.518 20.094 58.6595 20.1607 58.8088 20.1607H62.9002C63.3238 20.1607 63.5554 19.6669 63.2847 19.3411L55.5329 10.0138C55.3769 9.8261 55.3792 9.55319 55.5384 9.36816L62.8815 0.832054C63.1604 0.507896 62.93 0.00598145 62.5024 0.00598145H58.5928C58.4449 0.00598145 58.3046 0.0714275 58.2096 0.184733L51.8742 7.74077C51.5743 8.09855 50.9911 7.88642 50.9911 7.41952V0.505982C50.9911 0.229839 50.7672 0.00598145 50.4911 0.00598145H47.3264C47.0502 0.00598145 46.8264 0.229839 46.8264 0.505981V18.4839C46.8264 18.9288 46.2889 19.1521 45.9736 18.8382L41.8788 14.7621C41.6691 14.5533 41.6855 14.2091 41.9142 14.0213L42.1997 13.7869C47.4665 9.46109 45.0759 1.00833 38.3191 0.011185C38.2957 0.00771899 38.2715 0.00598145 38.2477 0.00598145H25.1679C24.8918 0.00598145 24.6679 0.229839 24.6679 0.505981V16.9576C24.6679 17.4776 23.9727 17.6521 23.7271 17.1936L14.6645 0.269943C14.5775 0.107425 14.4081 0.00598145 14.2237 0.00598145H11.1378Z" fill="#626262"/>
<g clip-path="url(#clip0_0_1)">
<path d="M13.2245 24.2103C13.3105 24.2846 13.3094 24.4165 13.2268 24.4946L12.7599 24.9355C12.6854 25.006 12.57 25.0078 12.4885 24.9456C11.0699 23.8638 9.71564 24.9419 9.71564 26.1529C9.71564 27.3744 10.8723 28.2355 12.1427 27.477C12.2005 27.4425 12.2346 27.3788 12.2346 27.3115V26.2428C12.2346 26.1324 12.3242 26.0428 12.4346 26.0428H13.0777C13.1882 26.0428 13.2777 26.1324 13.2777 26.2428V28.478C13.2777 28.5885 13.1882 28.678 13.0777 28.678H12.5149C12.454 28.678 12.4046 28.6287 12.4046 28.5678C12.4046 28.4852 12.3169 28.4318 12.2417 28.4659C10.386 29.3083 8.53336 28.2363 8.53336 26.0428C8.53336 23.8453 11.3297 22.572 13.2245 24.2103Z" fill="#434343"/>
<path fill-rule="evenodd" clip-rule="evenodd" d="M19.5124 23.5648C19.402 23.5648 19.3124 23.6544 19.3124 23.7648V28.4543C19.3124 28.5648 19.402 28.6543 19.5124 28.6543H20.2637C20.3742 28.6543 20.4637 28.5648 20.4637 28.4543V27.4462C20.4637 27.3358 20.5533 27.2462 20.6637 27.2462H21.4319C21.4981 27.2462 21.5601 27.279 21.5973 27.3337L22.4364 28.5668C22.4736 28.6215 22.5355 28.6543 22.6017 28.6543H23.374C23.5352 28.6543 23.6302 28.4732 23.5385 28.3406L22.7586 27.2127C22.6921 27.1164 22.7229 26.9843 22.8194 26.918C24.4839 25.7753 23.5055 23.5648 21.6614 23.5648H19.5124ZM20.6792 24.5324C20.5687 24.5324 20.4792 24.622 20.4792 24.7324V26.1102C20.4792 26.2207 20.5687 26.3102 20.6792 26.3102H21.5455C22.7509 26.3102 22.8127 24.5324 21.5455 24.5324H20.6792Z" fill="#434343"/>
<path fill-rule="evenodd" clip-rule="evenodd" d="M31.9382 28.7959C33.4575 28.7959 34.689 27.6055 34.689 26.1371C34.689 24.6687 33.4575 23.4783 31.9382 23.4783C30.4189 23.4783 29.1874 24.6687 29.1874 26.1371C29.1874 27.6055 30.4189 28.7959 31.9382 28.7959ZM31.9459 27.7576C32.8208 27.7576 33.5299 27.0215 33.5299 26.1135C33.5299 25.2055 32.8208 24.4695 31.9459 24.4695C31.0711 24.4695 30.3619 25.2055 30.3619 26.1135C30.3619 27.0215 31.0711 27.7576 31.9459 27.7576Z" fill="#434343"/>
<path d="M41.62 23.7569C41.62 23.6465 41.5305 23.5569 41.42 23.5569H40.6538C40.5431 23.5569 40.4535 23.6468 40.4538 23.7574L40.461 26.7585C40.461 28.5106 42.2217 29.2898 43.5262 28.3663C43.6548 28.2753 43.8531 28.3597 43.8531 28.5173C43.8531 28.6147 43.9321 28.6936 44.0295 28.6936H44.789C44.8994 28.6936 44.989 28.6041 44.989 28.4936V23.7569C44.989 23.6465 44.8994 23.5569 44.789 23.5569H44.0222C43.9118 23.5569 43.8222 23.6465 43.8222 23.7569V26.4753C43.8222 27.9857 41.62 28.2924 41.62 26.5933V23.7569Z" fill="#434343"/>
<path fill-rule="evenodd" clip-rule="evenodd" d="M51.3319 23.5648C51.2214 23.5648 51.1319 23.6544 51.1319 23.7648V28.4779C51.1319 28.5883 51.2214 28.6779 51.3319 28.6779H52.0909C52.2014 28.6779 52.2909 28.5883 52.2909 28.4779V27.462C52.2909 27.3515 52.3805 27.262 52.4909 27.262H53.4963C56.2162 27.2226 56.023 23.5648 53.4963 23.5648H51.3319ZM52.4909 24.5324C52.3805 24.5324 52.2909 24.6219 52.2909 24.7324V26.1101C52.2909 26.2206 52.3805 26.3101 52.4909 26.3101H53.3573C54.5627 26.3101 54.6245 24.5324 53.3573 24.5324H52.4909Z" fill="#434343"/>
</g>
<defs>
<clipPath id="clip0_0_1">
<rect width="46.9333" height="5.33333" fill="white" transform="translate(8.53336 23.4667)"/>
</clipPath>
</defs>
</svg>
