<svg width="120" height="80" viewBox="0 0 64 35" fill="none" xmlns="http://www.w3.org/2000/svg">
<path d="M11.1378 0.00598145C10.9537 0.00598145 10.7846 0.107079 10.6974 0.269162L0.396253 19.4239C0.217112 19.757 0.45839 20.1607 0.836612 20.1607H3.97327C4.157 20.1607 4.32592 20.0599 4.41322 19.8983L12.2173 5.4462C12.4057 5.0974 12.9056 5.09602 13.0959 5.44377L17.749 13.9479C17.9313 14.2811 17.6902 14.6879 17.3104 14.6879H10.437C10.2565 14.6879 10.09 14.7851 10.0014 14.9423L8.69629 17.2576C8.50841 17.5909 8.74925 18.0032 9.13186 18.0032H19.5718C19.7515 18.0032 19.9174 18.0996 20.0063 18.2558L20.9467 19.908C21.0356 20.0642 21.2015 20.1607 21.3813 20.1607H28.3861C28.6623 20.1607 28.8861 19.9368 28.8861 19.6607V15.2128C28.8861 15.079 28.9398 14.9507 29.0352 14.8567L35.012 8.96609C35.3306 8.65217 35.1083 8.10997 34.6611 8.10997H29.3861C29.11 8.10997 28.8861 7.88611 28.8861 7.60997V4.50535C28.8861 4.22921 29.11 4.00535 29.3861 4.00535H37.3223C40.4488 4.1286 41.9758 7.83868 39.8272 10.0911L39.4581 10.478L34.6382 15.3628C34.3264 15.6787 34.5502 16.214 34.9941 16.214H38.0764C38.2089 16.214 38.336 16.2666 38.4298 16.3602L42.0882 20.0144C42.1819 20.1081 42.309 20.1607 42.4415 20.1607H47.1536C47.3166 20.1607 47.4694 20.0812 47.563 19.9476L52.1624 13.3842C52.3521 13.1136 52.7474 13.098 52.9576 13.3529L58.423 19.9788C58.518 20.094 58.6595 20.1607 58.8088 20.1607H62.9002C63.3238 20.1607 63.5554 19.6669 63.2847 19.3411L55.5329 10.0138C55.3769 9.8261 55.3792 9.55319 55.5384 9.36816L62.8815 0.832054C63.1604 0.507896 62.93 0.00598145 62.5024 0.00598145H58.5928C58.4449 0.00598145 58.3046 0.0714275 58.2096 0.184733L51.8742 7.74077C51.5743 8.09855 50.9911 7.88642 50.9911 7.41952V0.505982C50.9911 0.229839 50.7672 0.00598145 50.4911 0.00598145H47.3264C47.0502 0.00598145 46.8264 0.229839 46.8264 0.505981V18.4839C46.8264 18.9288 46.2889 19.1521 45.9736 18.8382L41.8788 14.7621C41.6691 14.5533 41.6855 14.2091 41.9142 14.0213L42.1997 13.7869C47.4665 9.46109 45.0759 1.00833 38.3191 0.011185C38.2957 0.00771899 38.2715 0.00598145 38.2477 0.00598145H25.1679C24.8918 0.00598145 24.6679 0.229839 24.6679 0.505981V16.9576C24.6679 17.4776 23.9727 17.6521 23.7271 17.1936L14.6645 0.269943C14.5775 0.107425 14.4081 0.00598145 14.2237 0.00598145H11.1378Z" fill="#626262"/>
<g clip-path="url(#clip0_1_1438)">
<path d="M13.2245 24.2103C13.3105 24.2846 13.3094 24.4165 13.2268 24.4946L12.7599 24.9355C12.6854 25.006 12.57 25.0078 12.4885 24.9456C11.0699 23.8638 9.71564 24.9419 9.71564 26.1529C9.71564 27.3744 10.8723 28.2355 12.1427 27.477C12.2005 27.4425 12.2346 27.3788 12.2346 27.3115V26.2428C12.2346 26.1324 12.3242 26.0428 12.4346 26.0428H13.0777C13.1882 26.0428 13.2777 26.1324 13.2777 26.2428V28.478C13.2777 28.5885 13.1882 28.678 13.0777 28.678H12.5149C12.454 28.678 12.4046 28.6287 12.4046 28.5678C12.4046 28.4852 12.3169 28.4318 12.2417 28.4659C10.386 29.3083 8.53336 28.2363 8.53336 26.0428C8.53336 23.8453 11.3297 22.572 13.2245 24.2103Z" fill="#434343"/>
<path fill-rule="evenodd" clip-rule="evenodd" d="M19.5124 23.5648C19.402 23.5648 19.3124 23.6544 19.3124 23.7648V28.4543C19.3124 28.5648 19.402 28.6543 19.5124 28.6543H20.2637C20.3742 28.6543 20.4637 28.5648 20.4637 28.4543V27.4462C20.4637 27.3358 20.5533 27.2462 20.6637 27.2462H21.4319C21.4981 27.2462 21.5601 27.279 21.5973 27.3337L22.4364 28.5668C22.4736 28.6215 22.5355 28.6543 22.6017 28.6543H23.374C23.5352 28.6543 23.6302 28.4732 23.5385 28.3406L22.7586 27.2127C22.6921 27.1164 22.7229 26.9843 22.8194 26.918C24.4839 25.7753 23.5055 23.5648 21.6614 23.5648H19.5124ZM20.6792 24.5324C20.5687 24.5324 20.4792 24.622 20.4792 24.7324V26.1102C20.4792 26.2207 20.5687 26.3102 20.6792 26.3102H21.5455C22.7509 26.3102 22.8127 24.5324 21.5455 24.5324H20.6792Z" fill="#434343"/>
<path fill-rule="evenodd" clip-rule="evenodd" d="M31.9382 28.7959C33.4575 28.7959 34.689 27.6055 34.689 26.1371C34.689 24.6687 33.4575 23.4783 31.9382 23.4783C30.4189 23.4783 29.1874 24.6687 29.1874 26.1371C29.1874 27.6055 30.4189 28.7959 31.9382 28.7959ZM31.9459 27.7576C32.8208 27.7576 33.5299 27.0215 33.5299 26.1135C33.5299 25.2055 32.8208 24.4695 31.9459 24.4695C31.0711 24.4695 30.3619 25.2055 30.3619 26.1135C30.3619 27.0215 31.0711 27.7576 31.9459 27.7576Z" fill="#434343"/>
<path d="M41.62 23.7569C41.62 23.6465 41.5305 23.5569 41.42 23.5569H40.6538C40.5431 23.5569 40.4535 23.6468 40.4538 23.7574L40.461 26.7585C40.461 28.5106 42.2217 29.2898 43.5262 28.3663C43.6548 28.2753 43.8531 28.3597 43.8531 28.5173C43.8531 28.6147 43.9321 28.6936 44.0295 28.6936H44.789C44.8994 28.6936 44.989 28.6041 44.989 28.4936V23.7569C44.989 23.6465 44.8994 23.5569 44.789 23.5569H44.0222C43.9118 23.5569 43.8222 23.6465 43.8222 23.7569V26.4753C43.8222 27.9857 41.62 28.2924 41.62 26.5933V23.7569Z" fill="#434343"/>
<path fill-rule="evenodd" clip-rule="evenodd" d="M51.3319 23.5648C51.2214 23.5648 51.1319 23.6544 51.1319 23.7648V28.4779C51.1319 28.5883 51.2214 28.6779 51.3319 28.6779H52.0909C52.2014 28.6779 52.2909 28.5883 52.2909 28.4779V27.462C52.2909 27.3515 52.3805 27.262 52.4909 27.262H53.4963C56.2162 27.2226 56.023 23.5648 53.4963 23.5648H51.3319ZM52.4909 24.5324C52.3805 24.5324 52.2909 24.6219 52.2909 24.7324V26.1101C52.2909 26.2206 52.3805 26.3101 52.4909 26.3101H53.3573C54.5627 26.3101 54.6245 24.5324 53.3573 24.5324H52.4909Z" fill="#434343"/>
</g>
<path d="M8.85641 34.1333L9.96575 31.7067H10.2188L11.3281 34.1333H11.0577L10.0385 31.8557H10.1425L9.12335 34.1333H8.85641ZM9.29321 33.4851L9.36948 33.2771H10.7804L10.8567 33.4851H9.29321Z" fill="#434343"/>
<path d="M11.7296 34.1333V31.7067H11.941L13.6154 33.8144H13.5045V31.7067H13.7576V34.1333H13.5461L11.8752 32.0256H11.9861V34.1333H11.7296Z" fill="#434343"/>
<path d="M15.6139 34.1541C15.429 34.1541 15.258 34.1241 15.1008 34.064C14.946 34.0016 14.8108 33.9149 14.6952 33.804C14.582 33.6931 14.493 33.5625 14.4283 33.4123C14.3659 33.2621 14.3347 33.098 14.3347 32.92C14.3347 32.7421 14.3659 32.578 14.4283 32.4277C14.493 32.2775 14.5831 32.1469 14.6987 32.036C14.8143 31.9251 14.9495 31.8396 15.1043 31.7795C15.2615 31.7171 15.4325 31.6859 15.6174 31.6859C15.8023 31.6859 15.971 31.7148 16.1235 31.7725C16.2783 31.8303 16.4101 31.9181 16.5187 32.036L16.3592 32.1989C16.2575 32.0973 16.1455 32.0245 16.023 31.9805C15.9005 31.9366 15.7687 31.9147 15.6278 31.9147C15.4775 31.9147 15.3389 31.9401 15.2118 31.9909C15.087 32.0395 14.9772 32.11 14.8824 32.2024C14.79 32.2925 14.7172 32.3989 14.664 32.5213C14.6132 32.6415 14.5878 32.7744 14.5878 32.92C14.5878 33.0633 14.6132 33.1962 14.664 33.3187C14.7172 33.4412 14.79 33.5486 14.8824 33.6411C14.9772 33.7312 15.087 33.8017 15.2118 33.8525C15.3389 33.9011 15.4764 33.9253 15.6243 33.9253C15.763 33.9253 15.8935 33.9045 16.016 33.8629C16.1408 33.8213 16.2552 33.7509 16.3592 33.6515L16.5048 33.8456C16.3893 33.9473 16.2541 34.0247 16.0992 34.0779C15.9444 34.1287 15.7826 34.1541 15.6139 34.1541ZM16.2587 33.8144V32.92H16.5048V33.8456L16.2587 33.8144Z" fill="#434343"/>
<path d="M16.8426 34.1333L17.9519 31.7067H18.205L19.3143 34.1333H19.0439L18.0247 31.8557H18.1287L17.1095 34.1333H16.8426ZM17.2794 33.4851L17.3557 33.2771H18.7666L18.8429 33.4851H17.2794Z" fill="#434343"/>
<path d="M19.7158 34.1333V31.7067H20.7038C20.9626 31.7067 21.1891 31.7587 21.3832 31.8627C21.5797 31.9644 21.7322 32.1065 21.8408 32.2891C21.9495 32.4717 22.0038 32.682 22.0038 32.92C22.0038 33.1581 21.9495 33.3684 21.8408 33.5509C21.7322 33.7335 21.5797 33.8768 21.3832 33.9808C21.1891 34.0825 20.9626 34.1333 20.7038 34.1333H19.7158ZM19.9723 33.9115H20.6899C20.9048 33.9115 21.0909 33.8699 21.248 33.7867C21.4075 33.7012 21.5312 33.5845 21.619 33.4365C21.7068 33.2863 21.7507 33.1141 21.7507 32.92C21.7507 32.7236 21.7068 32.5514 21.619 32.4035C21.5312 32.2556 21.4075 32.14 21.248 32.0568C21.0909 31.9713 20.9048 31.9285 20.6899 31.9285H19.9723V33.9115Z" fill="#434343"/>
<path d="M23.605 33.4504C23.5588 33.4504 23.5149 33.4389 23.4733 33.4157C23.434 33.3926 23.4028 33.3614 23.3797 33.3221C23.3566 33.2829 23.345 33.2366 23.345 33.1835C23.345 33.1349 23.3566 33.091 23.3797 33.0517C23.4028 33.0125 23.434 32.9813 23.4733 32.9581C23.5149 32.935 23.5588 32.9235 23.605 32.9235C23.6512 32.9235 23.694 32.935 23.7333 32.9581C23.7726 32.9813 23.8038 33.0125 23.8269 33.0517C23.8523 33.091 23.865 33.1349 23.865 33.1835C23.865 33.2366 23.8523 33.2829 23.8269 33.3221C23.8038 33.3614 23.7726 33.3926 23.7333 33.4157C23.694 33.4389 23.6512 33.4504 23.605 33.4504Z" fill="#434343"/>
<path d="M25.0285 34.1333L26.1379 31.7067H26.3909L27.5003 34.1333H27.2299L26.2107 31.8557H26.3147L25.2955 34.1333H25.0285ZM25.4653 33.4851L25.5416 33.2771H26.9526L27.0288 33.4851H25.4653Z" fill="#434343"/>
<path d="M27.9017 34.1333V31.7067H28.1132L29.7876 33.8144H29.6766V31.7067H29.9297V34.1333H29.7182L28.0473 32.0256H28.1582V34.1333H27.9017Z" fill="#434343"/>
<path d="M31.786 34.1541C31.6011 34.1541 31.4301 34.1241 31.273 34.064C31.1181 34.0016 30.9829 33.9149 30.8674 33.804C30.7541 33.6931 30.6651 33.5625 30.6004 33.4123C30.538 33.2621 30.5068 33.098 30.5068 32.92C30.5068 32.7421 30.538 32.578 30.6004 32.4277C30.6651 32.2775 30.7553 32.1469 30.8708 32.036C30.9864 31.9251 31.1216 31.8396 31.2764 31.7795C31.4336 31.7171 31.6046 31.6859 31.7895 31.6859C31.9744 31.6859 32.1431 31.7148 32.2956 31.7725C32.4505 31.8303 32.5822 31.9181 32.6908 32.036L32.5314 32.1989C32.4297 32.0973 32.3176 32.0245 32.1951 31.9805C32.0726 31.9366 31.9409 31.9147 31.7999 31.9147C31.6497 31.9147 31.511 31.9401 31.3839 31.9909C31.2591 32.0395 31.1493 32.11 31.0546 32.2024C30.9621 32.2925 30.8893 32.3989 30.8362 32.5213C30.7853 32.6415 30.7599 32.7744 30.7599 32.92C30.7599 33.0633 30.7853 33.1962 30.8362 33.3187C30.8893 33.4412 30.9621 33.5486 31.0546 33.6411C31.1493 33.7312 31.2591 33.8017 31.3839 33.8525C31.511 33.9011 31.6485 33.9253 31.7964 33.9253C31.9351 33.9253 32.0657 33.9045 32.1882 33.8629C32.313 33.8213 32.4274 33.7509 32.5314 33.6515L32.677 33.8456C32.5614 33.9473 32.4262 34.0247 32.2714 34.0779C32.1165 34.1287 31.9547 34.1541 31.786 34.1541ZM32.4308 33.8144V32.92H32.677V33.8456L32.4308 33.8144Z" fill="#434343"/>
<path d="M33.0147 34.1333L34.1241 31.7067H34.3771L35.4865 34.1333H35.2161L34.1969 31.8557H34.3009L33.2817 34.1333H33.0147ZM33.4515 33.4851L33.5278 33.2771H34.9387L35.015 33.4851H33.4515Z" fill="#434343"/>
<path d="M36.2375 34.1333V31.9285H35.3847V31.7067H37.3468V31.9285H36.494V34.1333H36.2375Z" fill="#434343"/>
<path d="M38.7818 33.4504C38.7356 33.4504 38.6917 33.4389 38.6501 33.4157C38.6108 33.3926 38.5796 33.3614 38.5565 33.3221C38.5334 33.2829 38.5218 33.2366 38.5218 33.1835C38.5218 33.1349 38.5334 33.091 38.5565 33.0517C38.5796 33.0125 38.6108 32.9813 38.6501 32.9581C38.6917 32.935 38.7356 32.9235 38.7818 32.9235C38.828 32.9235 38.8708 32.935 38.9101 32.9581C38.9494 32.9813 38.9806 33.0125 39.0037 33.0517C39.0291 33.091 39.0418 33.1349 39.0418 33.1835C39.0418 33.2366 39.0291 33.2829 39.0037 33.3221C38.9806 33.3614 38.9494 33.3926 38.9101 33.4157C38.8708 33.4389 38.828 33.4504 38.7818 33.4504Z" fill="#434343"/>
<path d="M40.8155 33.5301L40.8051 33.2181L42.275 31.7067H42.5696L41.4984 32.8299L41.3528 32.9859L40.8155 33.5301ZM40.5936 34.1333V31.7067H40.8502V34.1333H40.5936ZM42.3374 34.1333L41.2904 32.9269L41.4638 32.7397L42.6424 34.1333H42.3374Z" fill="#434343"/>
<path d="M42.5752 34.1333L43.6845 31.7067H43.9376L45.0469 34.1333H44.7765L43.7573 31.8557H43.8613L42.8421 34.1333H42.5752ZM43.012 33.4851L43.0882 33.2771H44.4992L44.5754 33.4851H43.012Z" fill="#434343"/>
<path d="M46.1174 34.1541C45.9371 34.1541 45.7638 34.1253 45.5974 34.0675C45.4333 34.0074 45.3062 33.9311 45.2161 33.8387L45.3166 33.6411C45.4021 33.7243 45.5165 33.7948 45.6598 33.8525C45.8054 33.908 45.9579 33.9357 46.1174 33.9357C46.2699 33.9357 46.3936 33.9173 46.4883 33.8803C46.5854 33.841 46.6559 33.789 46.6998 33.7243C46.746 33.6596 46.7691 33.5879 46.7691 33.5093C46.7691 33.4146 46.7414 33.3383 46.6859 33.2805C46.6328 33.2228 46.5623 33.1777 46.4745 33.1453C46.3866 33.1107 46.2896 33.0806 46.1833 33.0552C46.077 33.0298 45.9706 33.0032 45.8643 32.9755C45.758 32.9454 45.6598 32.9061 45.5697 32.8576C45.4818 32.8091 45.4102 32.7455 45.3547 32.6669C45.3016 32.5861 45.275 32.4809 45.275 32.3515C45.275 32.2313 45.3062 32.1215 45.3686 32.0221C45.4333 31.9205 45.5315 31.8396 45.6633 31.7795C45.795 31.7171 45.9637 31.6859 46.1694 31.6859C46.3057 31.6859 46.4409 31.7055 46.575 31.7448C46.709 31.7818 46.8246 31.8338 46.9217 31.9008L46.835 32.1053C46.731 32.036 46.6201 31.9852 46.5022 31.9528C46.3866 31.9205 46.2745 31.9043 46.1659 31.9043C46.0203 31.9043 45.9001 31.9239 45.8054 31.9632C45.7106 32.0025 45.6401 32.0557 45.5939 32.1227C45.55 32.1874 45.5281 32.2613 45.5281 32.3445C45.5281 32.4393 45.5546 32.5156 45.6078 32.5733C45.6633 32.6311 45.7349 32.6762 45.8227 32.7085C45.9129 32.7409 46.0111 32.7698 46.1174 32.7952C46.2237 32.8206 46.3289 32.8484 46.4329 32.8784C46.5392 32.9085 46.6362 32.9477 46.7241 32.9963C46.8142 33.0425 46.8858 33.1049 46.939 33.1835C46.9945 33.2621 47.0222 33.3649 47.0222 33.492C47.0222 33.6099 46.9898 33.7197 46.9251 33.8213C46.8604 33.9207 46.761 34.0016 46.627 34.064C46.4953 34.1241 46.3254 34.1541 46.1174 34.1541Z" fill="#434343"/>
<path d="M47.1929 34.1333L48.3022 31.7067H48.5553L49.6646 34.1333H49.3942L48.375 31.8557H48.479L47.4598 34.1333H47.1929ZM47.6297 33.4851L47.7059 33.2771H49.1169L49.1931 33.4851H47.6297Z" fill="#434343"/>
<path d="M50.066 34.1333V31.7067H50.2775L51.3868 33.5995H51.2759L52.3748 31.7067H52.5863V34.1333H52.3402V32.0915H52.3991L51.3868 33.8248H51.2655L50.2463 32.0915H50.3122V34.1333H50.066Z" fill="#434343"/>
<path d="M52.9887 34.1333L54.098 31.7067H54.3511L55.4604 34.1333H55.19L54.1708 31.8557H54.2748L53.2556 34.1333H52.9887ZM53.4255 33.4851L53.5018 33.2771H54.9127L54.989 33.4851H53.4255Z" fill="#434343"/>
<defs>
<clipPath id="clip0_1_1438">
<rect width="46.9333" height="5.33333" fill="white" transform="translate(8.53336 23.4667)"/>
</clipPath>
</defs>
</svg>
