<svg width="18" height="18" viewBox="0 0 18 18" fill="none" xmlns="http://www.w3.org/2000/svg">
<path d="M12.9772 1.6875H5.02275C4.13819 1.6875 3.28985 2.03889 2.66437 2.66437C2.03889 3.28985 1.6875 4.13819 1.6875 5.02275V12.9772C1.6875 13.8618 2.03889 14.7101 2.66437 15.3356C3.28985 15.9611 4.13819 16.3125 5.02275 16.3125H12.9772C13.8618 16.3125 14.7101 15.9611 15.3356 15.3356C15.9611 14.7101 16.3125 13.8618 16.3125 12.9772V5.02275C16.3125 4.13819 15.9611 3.28985 15.3356 2.66437C14.7101 2.03889 13.8618 1.6875 12.9772 1.6875ZM6.63225 13.494C6.6346 13.5348 6.62858 13.5757 6.61456 13.6141C6.60054 13.6525 6.57882 13.6877 6.55072 13.7174C6.52263 13.7471 6.48875 13.7707 6.45118 13.7869C6.41361 13.803 6.37314 13.8113 6.33225 13.8113H4.99725C4.91681 13.8091 4.84039 13.7756 4.78434 13.7178C4.72828 13.6601 4.69703 13.5827 4.69725 13.5023V7.95C4.69615 7.90991 4.70309 7.87002 4.71767 7.83266C4.73226 7.7953 4.75418 7.76125 4.78215 7.73251C4.81012 7.70378 4.84356 7.68094 4.88051 7.66535C4.91745 7.64976 4.95715 7.64174 4.99725 7.64175H6.33225C6.37238 7.64163 6.41212 7.64959 6.44912 7.66514C6.48611 7.68069 6.5196 7.70353 6.54759 7.73229C6.57558 7.76104 6.5975 7.79514 6.61204 7.83254C6.62658 7.86994 6.63346 7.90989 6.63225 7.95V13.494ZM5.64 6.474C5.49546 6.47292 5.35256 6.44338 5.21944 6.38706C5.08632 6.33075 4.96559 6.24877 4.86416 6.1458C4.76272 6.04283 4.68256 5.92089 4.62825 5.78694C4.57394 5.653 4.54654 5.50966 4.54763 5.36513C4.54871 5.22059 4.57825 5.07768 4.63456 4.94456C4.69087 4.81144 4.77286 4.69072 4.87582 4.58928C4.97879 4.48785 5.10073 4.40768 5.23468 4.35337C5.36863 4.29906 5.51196 4.27167 5.6565 4.27275C5.94339 4.28208 6.21527 4.40316 6.41414 4.61014C6.61301 4.81713 6.72311 5.09364 6.72096 5.38067C6.7188 5.6677 6.60456 5.94253 6.40261 6.14651C6.20066 6.35049 5.927 6.46747 5.64 6.4725M13.7528 13.485C13.7526 13.5608 13.7229 13.6336 13.67 13.688C13.6171 13.7423 13.5451 13.7739 13.4692 13.776H12.06C11.9841 13.7737 11.9121 13.7419 11.8592 13.6875C11.8063 13.633 11.7767 13.5602 11.7765 13.4843V10.9163C11.7765 10.533 11.8935 9.249 10.7595 9.249C9.87525 9.249 9.7005 10.149 9.66675 10.5495V13.5427C9.66679 13.6188 9.63721 13.6919 9.58428 13.7465C9.53136 13.8011 9.45926 13.8329 9.38325 13.8353H8.016C7.97762 13.8353 7.93962 13.8277 7.90418 13.813C7.86873 13.7983 7.83654 13.7767 7.80944 13.7495C7.78233 13.7224 7.76086 13.6901 7.74624 13.6546C7.73163 13.6191 7.72415 13.5811 7.72425 13.5427V7.923C7.7264 7.84693 7.75819 7.77471 7.81283 7.72175C7.86748 7.66879 7.94065 7.63927 8.01675 7.6395H9.38325C9.45935 7.63927 9.53252 7.66879 9.58717 7.72175C9.64181 7.77471 9.6736 7.84693 9.67575 7.923V8.40675C9.87527 8.11472 10.1507 7.8827 10.4724 7.73573C10.7941 7.58875 11.1499 7.5324 11.5013 7.57275C13.7775 7.57275 13.7692 9.699 13.7692 10.908L13.7528 13.485Z" fill="#434343"/>
</svg>
